PathFileType	4	(X/Y/Z)	/Users/itak/Documents/Research/Walk-IL/dataset/trc/00258_00009.trc
DataRate	CameraRate	NumFrames	NumMarkers	Units	OrigDataRate	OrigDataStartFrame	OrigNumFrames
100.000000	100.000000	4	53	mm	100.000000	323	517
Frame#	Time	LPSI			L3			STRN			T10			C7			CLAV			RBAK			LBAK			LSHO			LUPA			LAEL			LAOL			LWTS			LWPS			LFRA			LIFD			LHPS			LHTS			RSHO			RUPA			RAEL			RAOL			RWTS			RWPS			RFRA			RIFD			RHTS			RHPS			RBHD			LFHD			RFHD			LBHD			LHIP			RHIP			RASI			LASI			LKNE			LTHI			LANK			LTIP			LTOE			LMT1			LMT5			LHEE			RKNE			RTHI			RANK			RTIP			RTOE			RMT1			RMT5			RHEE			RPSI			
		X1	Y1	Z1	X2	Y2	Z2	X3	Y3	Z3	X4	Y4	Z4	X5	Y5	Z5	X6	Y6	Z6	X7	Y7	Z7	X8	Y8	Z8	X9	Y9	Z9	X10	Y10	Z10	X11	Y11	Z11	X12	Y12	Z12	X13	Y13	Z13	X14	Y14	Z14	X15	Y15	Z15	X16	Y16	Z16	X17	Y17	Z17	X18	Y18	Z18	X19	Y19	Z19	X20	Y20	Z20	X21	Y21	Z21	X22	Y22	Z22	X23	Y23	Z23	X24	Y24	Z24	X25	Y25	Z25	X26	Y26	Z26	X27	Y27	Z27	X28	Y28	Z28	X29	Y29	Z29	X30	Y30	Z30	X31	Y31	Z31	X32	Y32	Z32	X33	Y33	Z33	X34	Y34	Z34	X35	Y35	Z35	X36	Y36	Z36	X37	Y37	Z37	X38	Y38	Z38	X39	Y39	Z39	X40	Y40	Z40	X41	Y41	Z41	X42	Y42	Z42	X43	Y43	Z43	X44	Y44	Z44	X45	Y45	Z45	X46	Y46	Z46	X47	Y47	Z47	X48	Y48	Z48	X49	Y49	Z49	X50	Y50	Z50	X51	Y51	Z51	X52	Y52	Z52	X53	Y53	Z53	

324	3.23	-206.8625335693359	1029.071044921875	-180.3410949707031	-159.9015045166016	1113.8388671875	-169.5961456298828	-136.2965545654297	1301.8916015625	-421.31005859375	-149.9736938476562	1241.136962890625	-163.8271636962891	-145.0220489501953	1503.267822265625	-229.4425048828125	-133.9007415771484	1419.643188476562	-395.7700805664062	-76.89193725585938	1362.126831054688	-150.2194213867188	-255.4298095703125	1466.866821289062	-215.6558380126953	-306.8601684570312	1469.248657226562	-308.0626525878906	-390.6640625	1354.535766601562	-276.3928833007812	-426.5242614746094	1145.8017578125	-274.7424011230469	-376.4884033203125	1130.495971679688	-203.5922698974609	-374.2390747070312	912.430908203125	-369.8718872070312	-454.048828125	896.4727172851562	-342.8448181152344	-444.6394958496094	1038.73193359375	-296.3575134277344	-383.7432556152344	718.80615234375	-372.6057739257812	-449.5792541503906	807.8823852539062	-360.0899963378906	-397.6849060058594	812.17333984375	-403.401123046875	26.62458419799805	1460.994995117188	-277.3685302734375	91.5941162109375	1395.769653320312	-256.1909484863281	140.0667877197266	1115.27490234375	-251.708740234375	51.2735595703125	1106.255004882812	-217.8975067138672	80.62207794189453	924.3182373046875	-415.623779296875	149.0431823730469	900.7914428710938	-372.3500061035156	149.7684936523438	1049.766723632812	-288.6988220214844	66.39476013183594	737.9110717773438	-460.9547729492188	89.09253692626953	812.3232421875	-477.3251037597656	144.1866302490234	802.5809936523438	-430.6571655273438	-90.61927795410156	1653.376586914062	-262.1250610351562	-167.3948516845703	1704.8662109375	-469.778564453125	-67.47734832763672	1702.4365234375	-460.7841796875	-219.1436004638672	1664.099365234375	-318.6747131347656	-329.0535278320312	970.108154296875	-304.6849365234375	31.88718605041504	991.4705810546875	-247.7541198730469	7.660488128662109	1034.158569335938	-347.6279296875	-267.1907043457031	1018.179504394531	-392.5679626464844	-264.2722778320312	515.440673828125	-473.2384643554688	-302.6213989257812	646.385009765625	-422.3493041992188	-240.2637481689453	29.52956771850586	-455.6181335449219	-263.3471374511719	282.5577697753906	-460.849609375	-170.5819702148438	61.24214553833008	-660.50830078125	-131.3785552978516	48.83674621582031	-590.7982788085938	-244.5950469970703	39.17374801635742	-583.14453125	-194.0360717773438	34.37096786499023	-389.5558776855469	-15.08212089538574	504.8399963378906	-235.8966064453125	38.96796798706055	766.4232788085938	-291.7496643066406	-74.39207458496094	37.12517929077148	-84.63409423828125	-35.48100280761719	386.8134155273438	-221.279052734375	-69.14458465576172	40.17233657836914	-298.9115295410156	-122.7797775268555	37.69914627075195	-254.9104309082031	-23.05779266357422	32.82799911499023	-183.5018310546875	-144.3813171386719	43.5994873046875	-35.74003982543945	-88.34129333496094	1028.362182617188	-166.3992004394531	
325	3.24	-207.1524353027344	1028.723388671875	-186.1847686767578	-160.3871765136719	1112.882202148438	-175.3245544433594	-136.3271179199219	1301.833251953125	-426.3163757324219	-150.8388977050781	1240.322875976562	-169.1463012695312	-145.9604187011719	1502.709106445312	-233.8729553222656	-134.1211547851562	1419.455200195312	-400.3750915527344	-78.33441162109375	1361.278686523438	-154.7906951904297	-256.4430541992188	1466.096069335938	-220.5049438476562	-307.4545593261719	1468.518432617188	-313.1043701171875	-391.1809387207031	1353.469848632812	-282.4288330078125	-426.6278076171875	1144.574462890625	-282.7349243164062	-377.2467956542969	1128.855712890625	-211.2512512207031	-372.4385375976562	912.2955932617188	-379.3059997558594	-452.6162719726562	895.7639770507812	-353.2967834472656	-444.0913391113281	1037.630249023438	-305.3634338378906	-381.3114013671875	718.7307739257812	-384.7149353027344	-447.6805114746094	807.4331665039062	-371.5930480957031	-395.3988037109375	812.4807739257812	-414.363037109375	26.00379753112793	1460.485717773438	-281.0365600585938	90.7218017578125	1395.122802734375	-259.5671691894531	139.1375885009766	1114.687866210938	-254.9275360107422	50.22502136230469	1105.711791992188	-221.5222625732422	80.28898620605469	923.3067016601562	-418.5750427246094	148.5416564941406	899.8919067382812	-375.080322265625	148.9705200195312	1049.109619140625	-291.7795715332031	66.14462280273438	736.802490234375	-463.5134887695312	88.88834381103516	811.1719360351562	-479.9527282714844	143.8950653076172	801.556396484375	-433.1116333007812	-91.18341827392578	1653.3662109375	-266.6212463378906	-168.0370788574219	1704.6533203125	-474.3082275390625	-68.08998870849609	1702.29931640625	-465.3095703125	-219.7236785888672	1663.978759765625	-323.17431640625	-329.3984680175781	969.9613647460938	-310.5679626464844	31.82787322998047	991.0535888671875	-253.7681884765625	7.767838954925537	1033.9443359375	-353.6251525878906	-267.3211669921875	1017.824462890625	-398.3265380859375	-263.3439025878906	514.8826904296875	-477.8200988769531	-301.2505798339844	646.0177001953125	-427.418701171875	-240.0267791748047	29.8880558013916	-456.0364990234375	-262.3677062988281	281.8910522460938	-464.2807922363281	-169.1958618164062	56.893798828125	-662.0214233398438	-130.4476165771484	45.88957595825195	-591.6987915039062	-243.9493255615234	38.06302261352539	-583.9111938476562	-193.7635955810547	34.95450210571289	-390.0314025878906	-15.17594909667969	504.7261047363281	-240.3564300537109	38.97018051147461	765.9998168945312	-297.1829528808594	-74.67203521728516	38.11496353149414	-84.88380432128906	-35.62123489379883	386.6959533691406	-224.8364868164062	-69.09160614013672	40.19524383544922	-298.9245910644531	-122.7299957275391	37.73647689819336	-254.9939880371094	-23.24051284790039	32.88536071777344	-183.6547546386719	-144.6717834472656	45.12843322753906	-36.02720642089844	-88.45925140380859	1027.892211914062	-172.3586273193359	
326	3.25	-207.3490295410156	1028.558715820312	-191.926513671875	-160.8319854736328	1112.131958007812	-180.966064453125	-136.4318237304688	1301.927368164062	-431.2886962890625	-151.6848602294922	1239.7197265625	-174.4445495605469	-146.9217681884766	1502.321411132812	-238.3075714111328	-134.4034729003906	1419.421142578125	-404.9569702148438	-79.84299468994141	1360.587768554688	-159.3886260986328	-257.4840698242188	1465.520751953125	-225.3337554931641	-308.0787658691406	1467.974243164062	-318.122802734375	-391.7295532226562	1352.600952148438	-288.4920043945312	-426.6930847167969	1143.547607421875	-290.9030151367188	-378.0452575683594	1127.391479492188	-219.0711212158203	-370.6299133300781	912.323974609375	-388.8149719238281	-451.2290344238281	895.2896118164062	-363.8732299804688	-443.5204162597656	1036.7470703125	-314.5292358398438	-379.0382385253906	718.8665771484375	-396.8469848632812	-445.8281555175781	807.2137451171875	-383.1788635253906	-393.1405029296875	812.976318359375	-425.359375	25.3524169921875	1460.130493164062	-284.703857421875	89.80404663085938	1394.622680664062	-262.9210510253906	138.0601043701172	1114.247436523438	-258.0675659179688	49.00264358520508	1105.330322265625	-225.1613616943359	80.0216064453125	922.3676147460938	-421.4306335449219	148.068359375	899.0988159179688	-377.6177978515625	148.0842895507812	1048.600463867188	-294.7445068359375	66.08936309814453	735.7651977539062	-465.9290466308594	88.87802124023438	810.0883178710938	-482.4359130859375	143.7408599853516	800.6239013671875	-435.3516845703125	-91.79462432861328	1653.480346679688	-271.1042175292969	-168.7052917480469	1704.634399414062	-478.8025207519531	-68.73268890380859	1702.345581054688	-469.7987670898438	-220.3480834960938	1664.004028320312	-327.662841796875	-329.8973083496094	970.1160278320312	-316.105224609375	31.81136131286621	990.7867431640625	-259.7862854003906	7.922337055206299	1033.903686523438	-359.6534729003906	-267.6115417480469	1017.695861816406	-403.9625244140625	-262.495361328125	514.5619506835938	-482.4736328125	-299.9830017089844	645.9992065429688	-432.6349182128906	-239.8569183349609	30.30971908569336	-456.3422241210938	-261.5351867675781	281.4728088378906	-467.6307067871094	-168.0573120117188	52.97534561157227	-663.3687744140625	-129.7427673339844	43.3865852355957	-592.4483032226562	-243.5486755371094	37.2286262512207	-584.510986328125	-193.5747222900391	35.55920791625977	-390.4359741210938	-15.23139572143555	504.6527404785156	-245.3070068359375	38.90441513061523	765.7083129882812	-302.7512817382812	-74.96563720703125	39.29995727539062	-85.20004272460938	-35.72542953491211	386.5861206054688	-228.8448944091797	-69.03021240234375	40.21632766723633	-298.96533203125	-122.6709136962891	37.78899383544922	-255.1033935546875	-23.46821975708008	32.97075271606445	-183.870849609375	-144.97216796875	46.91618347167969	-36.38849639892578	-88.498291015625	1027.578002929688	-178.2529144287109	
327	3.26	-207.4576873779297	1028.553344726562	-197.563720703125	-161.2229766845703	1111.610229492188	-186.4947662353516	-136.6094207763672	1302.175659179688	-436.2143859863281	-152.4842376708984	1239.334594726562	-179.7091217041016	-147.8873596191406	1502.110107421875	-242.7385101318359	-134.7471618652344	1419.54541015625	-409.5078430175781	-81.3697509765625	1360.08251953125	-164.0073852539062	-258.5369262695312	1465.151000976562	-230.1356353759766	-308.726806640625	1467.63916015625	-323.1074829101562	-392.3042907714844	1351.961181640625	-294.5660095214844	-426.6990966796875	1142.755004882812	-299.2162780761719	-378.8521118164062	1126.13623046875	-227.0200805664062	-368.8246459960938	912.5520629882812	-398.4032287597656	-449.8768005371094	895.0902099609375	-374.5600280761719	-442.9284362792969	1036.117797851562	-323.8409118652344	-376.8979797363281	719.2286376953125	-408.9292907714844	-444.0360412597656	807.26025390625	-394.8264770507812	-390.8951416015625	813.6740112304688	-436.3568420410156	24.67043304443359	1459.9501953125	-288.4056091308594	88.85720062255859	1394.300903320312	-266.2994689941406	136.8376617431641	1113.978881835938	-261.1284484863281	47.60105133056641	1105.147827148438	-228.8215789794922	79.81813812255859	921.5227661132812	-424.1893310546875	147.626953125	898.4410400390625	-379.9502563476562	147.1121215820312	1048.262573242188	-297.58740234375	66.23212432861328	734.8128051757812	-468.1754760742188	89.06828308105469	809.0848999023438	-484.7593078613281	143.7176361083984	799.8011474609375	-437.3611450195312	-92.44232940673828	1653.711547851562	-275.5711975097656	-169.3915710449219	1704.800048828125	-483.2632751464844	-69.39964294433594	1702.56640625	-474.2545166015625	-221.0123443603516	1664.165283203125	-332.1364440917969	-330.5545349121094	970.5545654296875	-321.2622375488281	31.8056812286377	990.684326171875	-265.7698669433594	8.090261459350586	1034.040283203125	-365.6628112792969	-268.0543518066406	1017.793823242188	-409.4895324707031	-261.768310546875	514.4000244140625	-487.0441589355469	-298.9013977050781	646.2446899414062	-437.8854675292969	-239.7526092529297	30.73052024841309	-456.6000671386719	-260.8694458007812	281.2349548339844	-470.8157043457031	-167.1068115234375	49.57382965087891	-664.543701171875	-129.1859283447266	41.32659149169922	-593.0628051757812	-243.32568359375	36.63186645507812	-584.9998779296875	-193.4833984375	36.12710571289062	-390.8061828613281	-15.21901988983154	504.6043395996094	-250.8412017822266	38.76896667480469	765.5615844726562	-308.4432373046875	-75.25720977783203	40.70877075195312	-85.59368133544922	-35.75343704223633	386.4710083007812	-233.3760833740234	-68.95669555664062	40.2328987121582	-299.0436706542969	-122.6061325073242	37.87100982666016	-255.2525024414062	-23.72558975219727	33.09374618530273	-184.1531372070312	-145.2618713378906	49.01113510131836	-36.83858489990234	-88.48138427734375	1027.425048828125	-184.0485229492188	
